<svg width="68" height="68" viewBox="0 0 68 68" fill="none" xmlns="http://www.w3.org/2000/svg">
<g clip-path="url(#clip0_661_177)">
<path d="M52.4167 68.0003H36.9297C31.6224 68.093 26.354 67.0801 21.4595 65.0261C16.565 62.972 12.1516 59.9216 8.50002 56.0691C5.4103 52.6913 3.06925 48.6988 1.63029 44.3531C0.191326 40.0074 -0.31306 35.4067 0.150186 30.8524C0.853104 23.4423 3.96358 16.4662 9.00601 10.9909C14.0484 5.51559 20.7453 1.8424 28.0727 0.532943C32.8864 -0.359925 37.8385 -0.169968 42.5697 1.08903C47.3009 2.34803 51.6924 4.64449 55.4257 7.81178C59.378 11.1342 62.5526 15.2838 64.7253 19.9676C66.8981 24.6514 68.016 29.7551 68 34.9183V52.417C67.9948 56.5483 66.3513 60.5089 63.43 63.4302C60.5087 66.3515 56.548 67.995 52.4167 68.0003ZM34.085 8.50028C27.7228 8.49478 21.5872 10.8623 16.8777 15.14C12.1682 19.4178 9.22344 25.2981 8.61902 31.6316C8.27238 35.01 8.64343 38.4236 9.70786 41.6486C10.7723 44.8737 12.5061 47.8374 14.7957 50.3458C17.6492 53.3223 21.0904 55.6731 24.9007 57.249C28.711 58.8249 32.8073 59.5916 36.9297 59.5003H52.4167C54.2953 59.5003 56.097 58.754 57.4254 57.4256C58.7538 56.0972 59.5 54.2956 59.5 52.417V34.9183C59.5131 30.9964 58.6659 27.1194 57.0181 23.5604C55.3703 20.0015 52.962 16.8472 49.963 14.3199C45.5301 10.5548 39.9011 8.49169 34.085 8.50028ZM29.75 48.167C28.8183 48.1682 27.8955 47.9857 27.0345 47.6298C26.1735 47.2739 25.3911 46.7517 24.7322 46.0929L16.8754 38.4684C16.0762 37.6817 15.6204 36.6109 15.6073 35.4895C15.5942 34.3681 16.0248 33.287 16.8054 32.4818C17.586 31.6765 18.6532 31.2125 19.7744 31.1907C20.8957 31.1689 21.9801 31.5911 22.7914 32.3654L29.75 39.1003L45.1917 23.8881C45.5868 23.486 46.058 23.1664 46.5779 22.9482C47.0977 22.7299 47.6558 22.6172 48.2196 22.6167C48.7834 22.6163 49.3416 22.7279 49.8618 22.9453C50.382 23.1627 50.8538 23.4814 51.2496 23.8829C51.6455 24.2843 51.9575 24.7606 52.1674 25.2838C52.3774 25.807 52.4812 26.3668 52.4728 26.9305C52.4643 27.4943 52.3438 28.0507 52.1182 28.5674C51.8926 29.0841 51.5664 29.5507 51.1587 29.9401L34.7367 46.1128C34.0821 46.7672 33.3045 47.2857 32.4486 47.6382C31.5928 47.9908 30.6756 48.1705 29.75 48.167Z" fill="#27AE60"/>
</g>
<defs>
<clipPath id="clip0_661_177">
<rect width="68" height="68" fill="white"/>
</clipPath>
</defs>
</svg>
