<svg width="24" height="24" viewBox="0 0 24 24" fill="none" xmlns="http://www.w3.org/2000/svg">
<g clip-path="url(#clip0_35_1559)">
<path d="M17.0002 10C15.6157 10 14.2623 10.4105 13.1112 11.1797C11.96 11.9489 11.0628 13.0421 10.533 14.3212C10.0032 15.6003 9.86459 17.0078 10.1347 18.3656C10.4048 19.7235 11.0715 20.9708 12.0504 21.9497C13.0294 22.9287 14.2767 23.5954 15.6346 23.8655C16.9924 24.1356 18.3999 23.997 19.679 23.4672C20.9581 22.9373 22.0513 22.0401 22.8205 20.889C23.5896 19.7379 24.0002 18.3845 24.0002 17C23.9981 15.1441 23.2599 13.3649 21.9476 12.0526C20.6353 10.7403 18.8561 10.0021 17.0002 10ZM19.7072 19.707C19.5197 19.8945 19.2654 19.9998 19.0002 19.9998C18.735 19.9998 18.4807 19.8945 18.2932 19.707L16.2932 17.707C16.1056 17.5195 16.0002 17.2652 16.0002 17V14C16.0002 13.7348 16.1055 13.4804 16.2931 13.2929C16.4806 13.1054 16.735 13 17.0002 13C17.2654 13 17.5198 13.1054 17.7073 13.2929C17.8948 13.4804 18.0002 13.7348 18.0002 14V16.586L19.7072 18.293C19.8947 18.4805 20 18.7348 20 19C20 19.2652 19.8947 19.5195 19.7072 19.707ZM8.47418 11C7.38639 11 6.32302 10.6774 5.41855 10.0731C4.51408 9.46874 3.80913 8.60975 3.39285 7.60476C2.97656 6.59977 2.86765 5.4939 3.07986 4.42701C3.29208 3.36011 3.81591 2.3801 4.5851 1.61092C5.35428 0.841726 6.33429 0.317902 7.40119 0.105683C8.46808 -0.106535 9.57395 0.00238308 10.5789 0.418665C11.5839 0.834947 12.4429 1.5399 13.0473 2.44437C13.6516 3.34884 13.9742 4.41221 13.9742 5.5C13.9726 6.95821 13.3926 8.35623 12.3615 9.38734C11.3304 10.4184 9.93239 10.9984 8.47418 11ZM11.3562 24H1.00018C0.86793 24 0.736989 23.9738 0.614941 23.9228C0.492893 23.8719 0.382162 23.7973 0.289158 23.7032C0.196154 23.6092 0.122725 23.4977 0.0731225 23.3751C0.0235195 23.2525 -0.0012722 23.1212 0.000182577 22.989C-0.0044235 20.9143 0.61912 18.8869 1.78878 17.1734C2.95843 15.4598 4.61941 14.1405 6.55318 13.389C7.32111 13.1161 8.13245 12.986 8.94718 13.005C8.78622 13.328 8.64464 13.6602 8.52318 14C8.17688 14.9623 7.99993 15.9773 8.00018 17C8.00052 18.3435 8.30219 19.6698 8.883 20.8812C9.4638 22.0927 10.3089 23.1584 11.3562 24Z" fill="#F4845F"/>
</g>
<defs>
<clipPath id="clip0_35_1559">
<rect width="24" height="24" fill="white"/>
</clipPath>
</defs>
</svg>
