<svg width="12" height="14" viewBox="0 0 12 14" fill="none" xmlns="http://www.w3.org/2000/svg">
<path d="M6.00008 8.75018C5.84537 8.75018 5.697 8.68872 5.5876 8.57932C5.47821 8.46993 5.41675 8.32156 5.41675 8.16685C5.43841 7.78568 5.55437 7.41585 5.75423 7.09055C5.95409 6.76526 6.2316 6.49468 6.56183 6.3031C6.77762 6.18483 6.95035 6.00117 7.05516 5.77854C7.15998 5.55591 7.19149 5.30577 7.14517 5.0641C7.10024 4.83326 6.98739 4.62111 6.82111 4.45482C6.65482 4.28853 6.44267 4.17569 6.21183 4.13076C6.04333 4.09966 5.87004 4.10606 5.70428 4.14951C5.53853 4.19295 5.38438 4.27238 5.25279 4.38214C5.1212 4.49189 5.01541 4.62929 4.94293 4.78456C4.87044 4.93983 4.83306 5.10916 4.83342 5.28051C4.83342 5.43522 4.77196 5.58359 4.66256 5.69299C4.55317 5.80239 4.40479 5.86385 4.25008 5.86385C4.09537 5.86385 3.947 5.80239 3.8376 5.69299C3.72821 5.58359 3.66675 5.43522 3.66675 5.28051C3.66669 4.9397 3.74129 4.60302 3.8853 4.29413C4.02932 3.98524 4.23925 3.71165 4.50033 3.4926C4.74986 3.284 5.04023 3.12987 5.35283 3.04009C5.66542 2.95032 5.99333 2.92689 6.31551 2.9713C6.6377 3.01571 6.94704 3.12698 7.22369 3.29797C7.50034 3.46897 7.73818 3.69591 7.92197 3.96423C8.10575 4.23256 8.23141 4.53634 8.29089 4.85608C8.35036 5.17583 8.34233 5.50448 8.26732 5.82094C8.19231 6.1374 8.05197 6.43469 7.85531 6.69372C7.65864 6.95275 7.41 7.16781 7.12533 7.3251C6.97784 7.41598 6.85259 7.53878 6.75881 7.68445C6.66503 7.83012 6.60509 7.99496 6.58342 8.16685C6.58342 8.32156 6.52196 8.46993 6.41256 8.57932C6.30317 8.68872 6.15479 8.75018 6.00008 8.75018ZM6.46267 13.8602C7.72267 13.3538 11.8334 11.3629 11.8334 7.02526V4.00885C11.8341 3.39577 11.6412 2.79812 11.2824 2.30103C10.9236 1.80394 10.417 1.43275 9.83492 1.24035L6.18383 0.0299295C6.06464 -0.010302 5.93553 -0.010302 5.81633 0.0299295L2.16525 1.24035C1.58315 1.43275 1.0766 1.80394 0.717767 2.30103C0.358931 2.79812 0.166103 3.39577 0.16675 4.00885V7.02526C0.16675 10.8531 4.253 13.1946 5.506 13.8211C5.65748 13.9124 5.82531 13.9732 6.00008 14.0002C6.16164 13.9827 6.31851 13.9352 6.46267 13.8602ZM9.46742 2.34751C9.81656 2.46326 10.1204 2.68607 10.3356 2.9843C10.5509 3.28253 10.6668 3.64102 10.6667 4.00885V7.02526C10.6667 10.632 7.116 12.34 6.0275 12.7775C4.92617 12.2268 1.33342 10.1846 1.33342 7.02526V4.00885C1.33337 3.64102 1.44922 3.28253 1.66452 2.9843C1.87981 2.68607 2.18361 2.46326 2.53275 2.34751L6.00008 1.19835L9.46742 2.34751ZM6.00008 9.91685C5.88471 9.91685 5.77193 9.95106 5.676 10.0152C5.58007 10.0793 5.5053 10.1704 5.46115 10.2769C5.417 10.3835 5.40545 10.5008 5.42796 10.614C5.45047 10.7271 5.50602 10.8311 5.5876 10.9127C5.66919 10.9942 5.77313 11.0498 5.88628 11.0723C5.99944 11.0948 6.11673 11.0833 6.22332 11.0391C6.32991 10.995 6.42101 10.9202 6.48511 10.8243C6.5492 10.7283 6.58342 10.6156 6.58342 10.5002C6.58342 10.3455 6.52196 10.1971 6.41256 10.0877C6.30317 9.9783 6.15479 9.91685 6.00008 9.91685Z" fill="#F25C54"/>
</svg>
