<svg width="68" height="68" viewBox="0 0 68 68" fill="none" xmlns="http://www.w3.org/2000/svg">
<path d="M28.3333 34C28.3378 32.6315 28.8415 31.3117 29.75 30.2883V19.8333C29.75 18.7062 30.1978 17.6252 30.9948 16.8281C31.7918 16.0311 32.8728 15.5833 34 15.5833C35.1272 15.5833 36.2082 16.0311 37.0052 16.8281C37.8022 17.6252 38.25 18.7062 38.25 19.8333V30.2883C39.1624 31.3094 39.6668 32.6307 39.6668 34C39.6668 35.3693 39.1624 36.6906 38.25 37.7117V43.9167C38.25 45.0438 37.8022 46.1248 37.0052 46.9219C36.2082 47.7189 35.1272 48.1667 34 48.1667C32.8728 48.1667 31.7918 47.7189 30.9948 46.9219C30.1978 46.1248 29.75 45.0438 29.75 43.9167V37.7117C28.842 36.688 28.3383 35.3684 28.3333 34ZM34 0C32.8728 0 31.7918 0.447767 30.9948 1.2448C30.1978 2.04183 29.75 3.12283 29.75 4.25C29.75 5.37717 30.1978 6.45817 30.9948 7.2552C31.7918 8.05223 32.8728 8.5 34 8.5C40.763 8.5 47.249 11.1866 52.0312 15.9688C56.8134 20.751 59.5 27.237 59.5 34C59.5 40.763 56.8134 47.249 52.0312 52.0312C47.249 56.8134 40.763 59.5 34 59.5C32.8728 59.5 31.7918 59.9478 30.9948 60.7448C30.1978 61.5418 29.75 62.6228 29.75 63.75C29.75 64.8772 30.1978 65.9582 30.9948 66.7552C31.7918 67.5522 32.8728 68 34 68C43.0174 68 51.6654 64.4179 58.0416 58.0416C64.4179 51.6654 68 43.0174 68 34C68 24.9826 64.4179 16.3346 58.0416 9.95837C51.6654 3.58213 43.0174 0 34 0V0ZM8.5 34C8.5 33.1594 8.25074 32.3377 7.78375 31.6388C7.31675 30.9399 6.65299 30.3952 5.87641 30.0735C5.09982 29.7518 4.24529 29.6677 3.42087 29.8317C2.59645 29.9956 1.83917 30.4004 1.2448 30.9948C0.650425 31.5892 0.245652 32.3464 0.0816645 33.1709C-0.0823227 33.9953 0.00184147 34.8498 0.323514 35.6264C0.645186 36.403 1.18992 37.0667 1.88883 37.5337C2.58774 38.0007 3.40943 38.25 4.25 38.25C5.37717 38.25 6.45818 37.8022 7.25521 37.0052C8.05223 36.2082 8.5 35.1272 8.5 34ZM19.0967 3.94967C18.2561 3.94967 17.4344 4.19893 16.7355 4.66592C16.0366 5.13292 15.4919 5.79668 15.1702 6.57326C14.8485 7.34985 14.7643 8.20438 14.9283 9.0288C15.0923 9.85322 15.4971 10.6105 16.0915 11.2049C16.6858 11.7992 17.4431 12.204 18.2675 12.368C19.092 12.532 19.9465 12.4478 20.7231 12.1262C21.4997 11.8045 22.1634 11.2597 22.6304 10.5608C23.0974 9.86193 23.3467 9.04024 23.3467 8.19967C23.3467 7.0725 22.8989 5.99149 22.1019 5.19446C21.3048 4.39743 20.2238 3.94967 19.0967 3.94967ZM8.2535 14.875C7.41293 14.875 6.59124 15.1243 5.89233 15.5913C5.19342 16.0583 4.64869 16.722 4.32701 17.4986C4.00534 18.2752 3.92118 19.1297 4.08516 19.9541C4.24915 20.7786 4.65392 21.5358 5.2483 22.1302C5.84267 22.7246 6.59995 23.1294 7.42437 23.2933C8.24879 23.4573 9.10332 23.3732 9.87991 23.0515C10.6565 22.7298 11.3203 22.1851 11.7872 21.4862C12.2542 20.7873 12.5035 19.9656 12.5035 19.125C12.5035 17.9978 12.0557 16.9168 11.2587 16.1198C10.4617 15.3228 9.38067 14.875 8.2535 14.875ZM19.0967 55.5503C18.2561 55.5503 17.4344 55.7996 16.7355 56.2666C16.0366 56.7336 15.4919 57.3973 15.1702 58.1739C14.8485 58.9505 14.7643 59.805 14.9283 60.6295C15.0923 61.4539 15.4971 62.2112 16.0915 62.8055C16.6858 63.3999 17.4431 63.8047 18.2675 63.9687C19.092 64.1327 19.9465 64.0485 20.7231 63.7268C21.4997 63.4051 22.1634 62.8604 22.6304 62.1615C23.0974 61.4626 23.3467 60.6409 23.3467 59.8003C23.3467 58.6732 22.8989 57.5922 22.1019 56.7951C21.3048 55.9981 20.2238 55.5503 19.0967 55.5503ZM8.2535 44.625C7.41293 44.625 6.59124 44.8743 5.89233 45.3413C5.19342 45.8083 4.64869 46.472 4.32701 47.2486C4.00534 48.0252 3.92118 48.8797 4.08516 49.7041C4.24915 50.5285 4.65392 51.2858 5.2483 51.8802C5.84267 52.4746 6.59995 52.8793 7.42437 53.0433C8.24879 53.2073 9.10332 53.1232 9.87991 52.8015C10.6565 52.4798 11.3203 51.9351 11.7872 51.2362C12.2542 50.5373 12.5035 49.7156 12.5035 48.875C12.5035 47.7478 12.0557 46.6668 11.2587 45.8698C10.4617 45.0728 9.38067 44.625 8.2535 44.625Z" fill="#F25C54"/>
</svg>
