<svg width="20" height="20" viewBox="0 0 20 20" fill="none" xmlns="http://www.w3.org/2000/svg">
<g clip-path="url(#clip0_35_970)">
<path d="M11.6842 5.08759L8.16083 1.56509C7.9294 1.33204 7.65398 1.14728 7.35057 1.02153C7.04715 0.895788 6.72177 0.831565 6.39333 0.832593H0.833333C0.61232 0.832593 0.400358 0.92039 0.244078 1.07667C0.0877974 1.23295 0 1.44491 0 1.66593C0 1.88694 0.0877974 2.0989 0.244078 2.25518C0.400358 2.41146 0.61232 2.49926 0.833333 2.49926H6.39333C6.61422 2.49985 6.82595 2.5876 6.9825 2.74343L9.23833 4.99926H4.16667C3.062 5.00058 2.00296 5.43999 1.22185 6.22111C0.440735 7.00222 0.00132321 8.06126 0 9.16593L0 15.8326C0.00132321 16.9373 0.440735 17.9963 1.22185 18.7774C2.00296 19.5585 3.062 19.9979 4.16667 19.9993H10.8333C11.938 19.9979 12.997 19.5585 13.7782 18.7774C14.5593 17.9963 14.9987 16.9373 15 15.8326V9.16593C14.9986 8.20901 14.6685 7.28164 14.0648 6.53916C13.4611 5.79668 12.6207 5.28421 11.6842 5.08759Z" fill="#F79D65"/>
<path d="M19.0833 7.4632C18.8074 7.32338 18.4979 7.26363 18.1898 7.29073C17.8816 7.31783 17.5873 7.43069 17.34 7.61653L16.6733 8.11653V16.8849L17.34 17.3849C17.5876 17.5706 17.8821 17.6837 18.1903 17.7115C18.4986 17.7393 18.8085 17.6807 19.0854 17.5422C19.3622 17.4038 19.595 17.191 19.7578 16.9278C19.9205 16.6645 20.0067 16.3611 20.0067 16.0515V8.9532C20.0075 8.64334 19.9214 8.33946 19.7582 8.07607C19.595 7.81269 19.3612 7.60036 19.0833 7.4632Z" fill="#F79D65"/>
</g>
<defs>
<clipPath id="clip0_35_970">
<rect width="20" height="20" fill="white"/>
</clipPath>
</defs>
</svg>
